<svg xmlns="http://www.w3.org/2000/svg" width="500" height="500" viewBox="0 0 500 500" version="1.1"><path d="M 441.579 74.038 C 433.800 76.799, 427.728 81.071, 424.183 86.278 C 422.602 88.600, 409.374 113.450, 394.786 141.500 C 363.284 202.075, 364.861 199, 365.294 199 C 365.484 199, 367.165 197.638, 369.030 195.973 C 370.895 194.309, 374.913 191.734, 377.960 190.252 C 382.748 187.923, 384.722 187.562, 392.500 187.592 C 400.277 187.622, 402.300 188.011, 407.388 190.451 C 410.626 192.005, 414.998 194.998, 417.104 197.104 C 424.331 204.331, 428.731 216.610, 427.541 226.234 C 426.891 231.500, 426.891 231.500, 431.250 223.500 C 446.869 194.839, 485.101 119.672, 486.079 115.702 C 487.856 108.492, 486.779 98.113, 483.575 91.564 C 480.286 84.841, 472.006 77.182, 465.323 74.680 C 457.638 71.803, 448.569 71.558, 441.579 74.038 M 87.595 264.251 C 73.897 288.038, 59.423 313.125, 55.431 320 C 22.535 376.649, 1.153 414.439, 1.593 415.150 C 1.882 415.618, 37.836 416, 81.491 416 C 160.864 416, 160.864 416, 162.792 413.250 C 164.412 410.940, 182.611 379.720, 190.775 365.247 C 193.174 360.995, 193.174 360.995, 179.943 337.975 C 172.665 325.314, 166.603 315.078, 166.470 315.228 C 166.337 315.377, 163.464 320.225, 160.086 326 C 156.708 331.775, 153.277 337.625, 152.461 339 C 151.645 340.375, 148.036 346.675, 144.441 353 C 134.139 371.121, 138.899 369.078, 107.718 368.767 C 80.970 368.500, 80.970 368.500, 89.577 353.500 C 94.311 345.250, 100.676 334.225, 103.721 329 C 114.318 310.818, 116.895 306.366, 129.772 284 C 136.897 271.625, 143.851 259.475, 145.225 257 C 148.075 251.865, 161.244 229.134, 164.198 224.250 C 166.163 221, 166.163 221, 139.332 221.001 C 112.500 221.003, 112.500 221.003, 87.595 264.251" stroke="none" fill="#34aaee" fill-rule="evenodd"/><path d="M 477 82.500 C 478.866 84.425, 480.617 86, 480.892 86 C 481.167 86, 479.866 84.425, 478 82.500 C 476.134 80.575, 474.383 79, 474.108 79 C 473.833 79, 475.134 80.575, 477 82.500 M 414 103 C 412.878 105.200, 412.184 107, 412.459 107 C 412.734 107, 413.878 105.200, 415 103 C 416.122 100.800, 416.816 99, 416.541 99 C 416.266 99, 415.122 100.800, 414 103 M 487.300 107 C 487.300 110.025, 487.487 111.263, 487.716 109.750 C 487.945 108.237, 487.945 105.763, 487.716 104.250 C 487.487 102.737, 487.300 103.975, 487.300 107 M 401 128 C 399.878 130.200, 399.184 132, 399.459 132 C 399.734 132, 400.878 130.200, 402 128 C 403.122 125.800, 403.816 124, 403.541 124 C 403.266 124, 402.122 125.800, 401 128 M 162.751 132.671 C 160.831 135.877, 154.693 146.432, 149.111 156.126 C 138.960 173.752, 138.960 173.752, 151.980 196.314 C 159.141 208.723, 165 219.129, 165 219.438 C 165 219.747, 152.963 220.102, 138.250 220.226 C 111.500 220.452, 111.500 220.452, 138.999 220.976 C 166.499 221.500, 166.499 221.500, 217.749 310.449 C 245.937 359.371, 269 400.196, 269 401.172 C 269 404.871, 274.371 414.073, 279.124 418.519 C 293.168 431.656, 312.221 431.841, 328.490 419 C 330.929 417.075, 332.941 414.929, 332.962 414.230 C 332.983 413.532, 334.044 411.282, 335.321 409.230 C 336.597 407.179, 357.764 366.756, 382.357 319.401 C 425.174 236.958, 427.093 233.031, 427.560 226.901 C 428.770 210.996, 421.019 196.990, 407.388 190.451 C 402.300 188.011, 400.277 187.622, 392.500 187.592 C 384.722 187.562, 382.748 187.923, 377.960 190.252 C 374.913 191.734, 370.895 194.309, 369.030 195.973 C 365.360 199.250, 364.486 199.701, 365.588 197.750 C 366.062 196.910, 365.959 196.828, 365.275 197.500 C 364.715 198.050, 347.719 230.337, 327.506 269.250 C 307.293 308.163, 290.473 339.987, 290.128 339.971 C 289.782 339.954, 281.429 325.892, 271.564 308.721 C 216.255 212.446, 167.729 128.395, 167.035 127.671 C 166.598 127.214, 164.671 129.464, 162.751 132.671 M 470 149 C 468.878 151.200, 468.184 153, 468.459 153 C 468.734 153, 469.878 151.200, 471 149 C 472.122 146.800, 472.816 145, 472.541 145 C 472.266 145, 471.122 146.800, 470 149 M 388 153 C 386.878 155.200, 386.184 157, 386.459 157 C 386.734 157, 387.878 155.200, 389 153 C 390.122 150.800, 390.816 149, 390.541 149 C 390.266 149, 389.122 150.800, 388 153 M 457.500 173 C 456.647 174.650, 456.174 176, 456.449 176 C 456.724 176, 457.647 174.650, 458.500 173 C 459.353 171.350, 459.826 170, 459.551 170 C 459.276 170, 458.353 171.350, 457.500 173 M 444.500 198 C 443.106 200.750, 442.191 203, 442.466 203 C 442.741 203, 444.106 200.750, 445.500 198 C 446.894 195.250, 447.809 193, 447.534 193 C 447.259 193, 445.894 195.250, 444.500 198 M 432 222 C 430.878 224.200, 430.184 226, 430.459 226 C 430.734 226, 431.878 224.200, 433 222 C 434.122 219.800, 434.816 218, 434.541 218 C 434.266 218, 433.122 219.800, 432 222 M 155.500 239 C 154.647 240.650, 154.174 242, 154.449 242 C 154.724 242, 155.647 240.650, 156.500 239 C 157.353 237.350, 157.826 236, 157.551 236 C 157.276 236, 156.353 237.350, 155.500 239 M 147.535 252.587 C 146.603 254.009, 146.012 255.346, 146.223 255.556 C 146.433 255.766, 147.394 254.602, 148.359 252.969 C 150.514 249.321, 149.871 249.022, 147.535 252.587 M 110.500 317 C 109.647 318.650, 109.174 320, 109.449 320 C 109.724 320, 110.647 318.650, 111.500 317 C 112.353 315.350, 112.826 314, 112.551 314 C 112.276 314, 111.353 315.350, 110.500 317 M 161.880 321.250 C 161.225 322.488, 160.036 324.625, 159.239 326 C 157.848 328.398, 157.857 328.419, 159.471 326.500 C 161.464 324.130, 164.261 319, 163.561 319 C 163.291 319, 162.535 320.012, 161.880 321.250 M 99.500 336 C 98.647 337.650, 98.174 339, 98.449 339 C 98.724 339, 99.647 337.650, 100.500 336 C 101.353 334.350, 101.826 333, 101.551 333 C 101.276 333, 100.353 334.350, 99.500 336 M 151.632 339.250 C 149.833 342.500, 149.833 342.500, 151.894 340 C 153.722 337.783, 154.534 336, 153.716 336 C 153.559 336, 152.622 337.462, 151.632 339.250 M 91.500 350 C 90.647 351.650, 90.174 353, 90.449 353 C 90.724 353, 91.647 351.650, 92.500 350 C 93.353 348.350, 93.826 347, 93.551 347 C 93.276 347, 92.353 348.350, 91.500 350 M 143.500 353 C 142.647 354.650, 142.174 356, 142.449 356 C 142.724 356, 143.647 354.650, 144.500 353 C 145.353 351.350, 145.826 350, 145.551 350 C 145.276 350, 144.353 351.350, 143.500 353 M 87.500 357 C 86.647 358.650, 86.174 360, 86.449 360 C 86.724 360, 87.647 358.650, 88.500 357 C 89.353 355.350, 89.826 354, 89.551 354 C 89.276 354, 88.353 355.350, 87.500 357 M 139.500 360 C 138.647 361.650, 138.174 363, 138.449 363 C 138.724 363, 139.647 361.650, 140.500 360 C 141.353 358.350, 141.826 357, 141.551 357 C 141.276 357, 140.353 358.350, 139.500 360" stroke="none" fill="#6e6f72" fill-rule="evenodd"/></svg>